<svg version="1.1" id="Layer_1" xmlns="http://www.w3.org/2000/svg" xmlns:xlink="http://www.w3.org/1999/xlink" x="0px" y="0px"
	 width="100%" viewBox="0 0 1024 982" enable-background="new 0 0 1024 982" xml:space="preserve">
<path fill="#FFFFFF" opacity="0.000000" stroke="none" 
	d="
M554.000000,983.000000 
	C369.333344,983.000000 185.166672,983.000000 1.000000,983.000000 
	C1.000000,655.666687 1.000000,328.333344 1.000000,1.000000 
	C342.333344,1.000000 683.666687,1.000000 1025.000000,1.000000 
	C1025.000000,328.333344 1025.000000,655.666687 1025.000000,983.000000 
	C868.166687,983.000000 711.333313,983.000000 554.000000,983.000000 
M773.882629,944.963013 
	C785.544922,944.975220 797.207153,944.988403 808.869446,944.998108 
	C809.869202,944.998962 810.904175,945.142517 811.862915,944.938416 
	C817.818665,943.670288 823.751099,942.293152 829.703979,941.011230 
	C833.161560,940.266663 836.692566,939.814636 840.096497,938.885986 
	C842.477112,938.236511 844.704712,937.017822 846.989685,936.028015 
	C852.382446,933.692139 857.782776,931.372925 863.150085,928.979675 
	C865.151062,928.087402 867.487305,927.419495 868.945374,925.936279 
	C873.251587,921.555420 879.088501,919.529541 883.838318,915.603882 
	C890.195068,910.350098 896.979553,905.557007 903.185974,899.949219 
	C908.086304,895.521545 912.583679,890.611816 916.675842,885.681458 
	C922.249817,878.965820 926.232849,870.808105 930.213257,862.923035 
	C934.928833,853.581360 939.621338,844.144531 941.042908,833.522522 
	C941.488647,830.192322 942.329346,826.901062 943.183655,823.642883 
	C944.358826,819.160889 946.455078,814.793762 946.864441,810.260681 
	C948.212097,795.335693 946.162537,780.381836 948.519714,765.282715 
	C950.036316,755.568115 951.206116,744.854797 947.040649,734.925964 
	C946.743225,734.217163 947.037903,733.273743 946.994324,732.442688 
	C945.798950,709.653259 949.415527,686.732849 945.044983,664.019531 
	C944.067627,658.940186 943.658997,653.751404 942.986938,648.613220 
	C942.944519,648.288757 942.930481,647.952881 942.832947,647.644531 
	C940.228394,639.413757 937.731628,631.146179 934.958130,622.972534 
	C933.309875,618.115234 931.352173,613.350464 929.301636,608.645203 
	C926.659241,602.581665 923.822571,596.601440 920.997620,590.619324 
	C918.858948,586.090271 917.000671,581.361145 914.306274,577.179382 
	C910.989258,572.031433 906.846130,567.423523 903.217285,562.467102 
	C897.546631,554.722107 892.687317,546.255859 886.238281,539.240662 
	C878.502258,530.825562 869.591309,523.460083 860.939331,515.927124 
	C853.811523,509.721283 846.328735,503.922394 838.982666,497.968536 
	C836.878784,496.263306 834.787231,494.521240 832.542297,493.016357 
	C828.421631,490.254028 824.212158,487.621857 820.000854,484.997803 
	C815.659668,482.292786 811.332825,479.555023 806.884521,477.034973 
	C803.700256,475.230988 800.192200,473.983795 797.065430,472.096069 
	C791.205811,468.558472 785.868530,463.920288 779.663147,461.255066 
	C773.034241,458.407898 766.625366,455.024628 759.823059,452.416565 
	C749.958618,448.634430 740.632629,443.390686 730.185730,440.919495 
	C727.742493,440.341583 725.398865,439.278503 723.069946,438.295166 
	C719.031982,436.590179 715.141785,434.475555 711.005005,433.079742 
	C706.008606,431.393860 700.788208,430.385162 695.722717,428.887238 
	C689.439392,427.029144 683.237610,424.895660 676.956482,423.029633 
	C673.886719,422.117584 670.686462,421.651154 667.600159,420.786957 
	C663.446411,419.623871 659.410767,417.960510 655.205322,417.081543 
	C650.306519,416.057617 645.233887,415.878754 640.319885,414.910980 
	C634.988708,413.861053 629.806519,412.019165 624.460815,411.089386 
	C619.368713,410.203766 614.267212,410.704926 608.963135,409.395721 
	C600.351257,407.270020 591.124023,407.250641 582.143066,407.089630 
	C564.982239,406.781952 547.807617,406.777344 530.647949,407.114838 
	C524.179443,407.242035 517.755798,405.985352 511.105652,408.689270 
	C505.747833,410.867706 499.284515,410.315430 493.315186,411.005066 
	C487.674469,411.656799 482.019623,412.224548 476.407684,413.071930 
	C473.410950,413.524506 470.458374,414.378845 467.545624,415.251404 
	C463.718140,416.398041 459.990051,417.885284 456.145996,418.965546 
	C450.593292,420.525970 444.809723,421.407684 439.431274,423.404724 
	C434.092346,425.387054 429.258423,428.695740 423.976776,430.874207 
	C416.625824,433.906189 408.992279,436.249115 401.615875,439.224487 
	C395.847198,441.551331 390.272583,444.363770 384.635712,447.011536 
	C379.133759,449.595886 373.707733,452.346405 368.163635,454.835205 
	C363.288940,457.023438 358.373932,459.169464 353.337708,460.938263 
	C346.819489,463.227570 340.111176,464.973877 333.583679,467.239014 
	C328.732727,468.922394 324.154175,471.445618 319.249176,472.905762 
	C311.432983,475.232391 303.480194,477.136414 295.521149,478.936005 
	C288.627350,480.494659 281.668518,481.806305 274.692505,482.946045 
	C270.234222,483.674408 265.837555,483.059753 261.167023,484.643677 
	C255.009705,486.731842 247.979797,487.078552 241.376434,486.826691 
	C231.237808,486.439972 221.160889,488.081696 210.854843,485.382538 
	C203.173660,483.370758 194.646530,485.193024 186.493835,483.183075 
	C180.079926,481.601807 173.261597,481.663727 166.624664,480.978668 
	C166.144409,480.929077 165.671478,480.761505 165.207184,480.611511 
	C159.429718,478.745178 153.646851,476.895111 147.881210,474.992859 
	C143.495087,473.545776 139.131577,472.030151 134.033463,470.298981 
	C138.444016,468.950073 141.596054,467.846924 144.826660,467.070862 
	C146.015701,466.785156 147.424683,467.132751 148.671494,467.441406 
	C150.224014,467.825684 151.734131,468.981628 153.225296,468.918884 
	C165.703110,468.393677 178.172348,467.664764 190.644272,466.999359 
	C191.143204,466.972717 191.663574,467.052795 192.139725,466.939423 
	C197.588882,465.642303 203.001282,464.170441 208.485153,463.045837 
	C212.909500,462.138489 217.434738,461.733948 221.883057,460.928619 
	C224.714691,460.416016 227.576614,459.821503 230.267288,458.834076 
	C235.088974,457.064667 239.656586,454.478668 244.575928,453.128754 
	C251.937836,451.108551 258.600189,447.881226 265.053345,443.917358 
	C271.282532,440.091125 277.852112,436.819122 284.082947,432.995422 
	C290.328735,429.162537 296.456268,425.109375 302.403595,420.830231 
	C305.160950,418.846313 307.516846,416.418549 310.387665,414.415009 
	C317.448792,409.486938 322.612732,402.181641 328.721466,396.010925 
	C334.114349,390.563385 337.904083,383.483887 342.154449,376.963806 
	C345.946075,371.147491 349.868622,365.336884 352.872345,359.108521 
	C355.980591,352.663422 360.211334,346.750122 361.562439,339.359161 
	C362.320709,335.211121 365.538177,331.574890 366.887421,327.458862 
	C369.226257,320.324066 371.334534,313.071259 372.875610,305.728607 
	C374.629578,297.371552 376.927094,288.833313 376.738678,280.424225 
	C376.324890,261.954956 379.404144,243.368256 375.101929,224.980103 
	C374.044006,220.458359 375.435089,215.732422 373.224121,210.984756 
	C370.904572,206.003860 370.403748,200.188095 368.979523,194.770981 
	C368.534149,193.076904 367.660583,191.496979 367.002411,189.856979 
	C365.624115,186.422546 364.184875,183.009827 362.919281,179.534088 
	C362.282227,177.784561 361.970123,175.916718 361.511078,174.102386 
	C358.062286,167.958099 353.553497,161.948975 349.056305,155.931183 
	C348.972900,155.819595 349.087708,155.564941 349.007996,155.444778 
	C345.361633,149.950699 342.401031,143.792038 337.897552,139.121429 
	C329.401642,130.310226 320.027802,122.344131 310.976654,114.072990 
	C310.366852,113.515747 309.314941,113.469559 308.620026,112.973572 
	C305.504120,110.749466 300.205994,110.794006 300.713654,105.624939 
	C298.504669,104.973541 296.649231,104.672371 295.018005,103.898605 
	C290.392029,101.704330 285.978088,99.022346 281.252350,97.091034 
	C276.827576,95.282730 271.822449,94.758659 267.602203,92.623116 
	C263.250031,90.420815 259.007904,88.839279 254.142944,88.989738 
	C253.321365,89.015144 252.458618,89.042229 251.677795,88.833336 
	C247.045792,87.594147 242.385818,85.055946 237.821243,85.228577 
	C223.515900,85.769585 209.188766,83.242828 194.823776,86.689896 
	C188.482330,88.211617 181.921585,89.563835 175.503342,90.581512 
	C168.400253,91.707787 163.159805,96.478477 155.949585,97.573334 
	C149.344086,98.576355 143.022263,103.426590 137.265564,107.546021 
	C129.844711,112.856285 123.132553,119.152977 116.070961,124.971176 
	C113.125412,127.398071 109.527641,129.245346 107.165573,132.126175 
	C101.509773,139.024124 96.319450,146.313354 91.129280,153.578964 
	C88.841660,156.781357 86.780350,160.196198 85.037392,163.722717 
	C83.267174,167.304413 82.983437,172.188446 80.329475,174.643921 
	C75.279160,179.316528 75.640137,185.772980 73.264793,191.212234 
	C70.747391,196.976822 70.669167,203.754883 68.863281,209.895538 
	C66.799507,216.913101 65.036995,223.934189 65.024879,231.256317 
	C64.968651,265.255524 65.077774,299.255188 64.956596,333.254089 
	C64.916298,344.562225 65.616760,355.646729 68.840004,366.628143 
	C70.957512,373.842377 71.651283,381.473114 73.023125,388.909851 
	C73.154350,389.621155 73.591064,390.272583 73.856743,390.963074 
	C76.241356,397.160339 78.605148,403.365631 81.004143,409.557312 
	C82.751366,414.066772 84.343086,418.651550 86.371124,423.032898 
	C88.340042,427.286530 90.746788,431.340179 93.015068,435.451965 
	C96.614052,441.975952 100.003006,448.635223 103.959724,454.936554 
	C107.395172,460.407806 111.180695,465.729919 115.370750,470.640778 
	C122.479813,478.972961 131.717148,485.377899 137.547012,494.902740 
	C143.404831,495.335449 144.630280,501.302399 148.519531,504.145935 
	C153.543350,507.818817 158.120331,512.096130 163.007462,515.964478 
	C168.580429,520.375610 174.188843,524.753906 179.956039,528.904358 
	C185.654999,533.005737 191.505432,536.907654 197.413742,540.703491 
	C201.962723,543.626038 206.605209,546.436951 211.385956,548.956116 
	C217.117172,551.976196 223.794281,553.703979 228.690918,557.679749 
	C235.032639,562.828918 242.542496,565.172241 249.411011,568.965027 
	C253.368088,571.150208 257.525970,572.980042 261.636230,574.877197 
	C266.178314,576.973511 270.725098,579.071594 275.351440,580.970154 
	C279.853699,582.817688 284.453888,584.427795 289.020660,586.116272 
	C293.472717,587.762390 297.913849,589.443237 302.404297,590.978577 
	C305.127625,591.909668 307.964905,592.504700 310.697845,593.410889 
	C314.041687,594.519653 317.283295,595.953247 320.655731,596.954590 
	C323.878357,597.911438 327.275848,598.288940 330.482941,599.286194 
	C336.134491,601.043701 341.637939,603.292236 347.318573,604.937378 
	C352.847443,606.538635 358.509766,607.690186 364.133636,608.949219 
	C370.397156,610.351440 376.658112,611.787903 382.966095,612.963013 
	C390.883362,614.437927 398.816040,615.907349 406.799927,616.925171 
	C414.564087,617.915161 422.394928,618.800598 430.207794,618.908081 
	C450.203613,619.183167 470.207642,619.151184 490.204102,618.901123 
	C495.677582,618.832764 501.067780,619.662354 506.755066,617.336731 
	C512.106262,615.148499 518.567505,615.685242 524.537170,614.995483 
	C530.177917,614.343811 535.814636,613.657349 541.452637,612.981812 
	C541.774902,612.943237 542.102905,612.898010 542.410583,612.800049 
	C546.369446,611.539185 550.289062,610.136597 554.292725,609.040955 
	C557.540710,608.152161 560.977722,607.907898 564.174683,606.888000 
	C571.947083,604.408386 579.606934,601.577576 587.358521,599.029480 
	C590.089478,598.131775 593.156555,598.074951 595.716431,596.877869 
	C600.542480,594.620667 605.235901,592.309387 610.327087,590.474731 
	C617.838257,587.768066 624.907715,583.639832 632.271301,580.321777 
	C639.783691,576.936584 647.573608,574.340759 655.101624,571.074951 
	C660.672424,568.658142 666.548584,566.945312 672.288513,564.918213 
	C677.871155,562.946777 683.386902,560.750183 689.054932,559.066223 
	C694.576111,557.425903 700.302612,556.485413 705.848328,554.917114 
	C712.153748,553.134094 718.284058,550.701782 724.627686,549.092407 
	C731.313232,547.396301 738.111450,545.931519 744.949829,545.103271 
	C753.871704,544.022644 762.872253,543.459106 771.856201,543.065308 
	C779.175293,542.744446 786.545349,542.610596 793.846924,543.090759 
	C804.983521,543.822998 816.171082,541.252502 827.338623,544.775146 
	C833.416260,546.692261 840.250671,546.081116 846.673096,547.069641 
	C853.165466,548.068970 859.658630,549.313354 865.989136,551.044067 
	C872.293823,552.767822 879.585144,551.567505 884.702271,557.000183 
	C885.644958,558.001099 886.501038,559.083679 887.937805,560.759033 
	C885.856812,560.921753 885.366089,560.990417 884.874817,560.994202 
	C863.887146,561.158264 842.864685,560.222961 821.959717,562.997070 
	C821.148010,563.104858 820.309692,563.076111 819.517883,563.258972 
	C814.216675,564.483643 808.943359,565.835083 803.623840,566.971558 
	C799.683411,567.813354 795.660339,568.271301 791.725952,569.136414 
	C789.553955,569.614136 787.474548,570.540283 785.378662,571.331055 
	C780.427612,573.199036 775.499695,575.128235 770.546814,576.991516 
	C767.220398,578.242981 763.808777,579.285461 760.540405,580.669556 
	C755.832153,582.663635 751.103760,584.665710 746.595825,587.062866 
	C741.249512,589.905640 736.047424,593.044922 730.940369,596.302673 
	C727.968140,598.198608 725.335632,600.619995 722.495850,602.731812 
	C716.939453,606.863647 710.573303,610.226196 705.938416,615.206360 
	C698.016113,623.718872 688.502319,630.637024 682.092407,640.776917 
	C677.818970,647.537048 672.617493,653.712891 668.228882,660.552612 
	C663.034363,668.648315 659.117004,677.193848 655.064087,685.738281 
	C652.533875,691.072327 651.427002,697.107300 648.705566,702.317993 
	C645.403015,708.641235 644.488281,715.443359 643.030884,722.170776 
	C642.178589,726.105103 641.706848,730.120300 640.936707,734.074341 
	C639.679199,740.530273 637.053711,747.002441 637.238525,753.403259 
	C637.781433,772.208008 634.611267,791.129822 638.925903,809.841553 
	C640.084717,814.866943 640.322876,820.103271 641.025940,825.237000 
	C641.106201,825.823181 641.467712,826.369141 641.686707,826.938416 
	C642.793274,829.813965 644.044250,832.644348 644.966736,835.578003 
	C646.551086,840.616150 647.537109,845.877136 649.502319,850.751099 
	C651.559692,855.853943 654.328247,860.694153 657.057312,865.494995 
	C659.613403,869.991516 662.495483,874.304871 665.293335,878.660767 
	C666.467957,880.489441 667.753784,882.251282 669.062134,883.988525 
	C671.716064,887.512390 673.735779,892.550354 677.274963,894.110657 
	C681.771667,896.093079 684.203491,899.550354 686.972961,902.681946 
	C694.531555,911.228455 704.570251,916.304199 713.598206,922.778259 
	C716.909729,925.153076 720.527466,927.208862 724.243286,928.882263 
	C728.161072,930.646606 733.042969,930.892029 736.294312,933.380920 
	C742.456238,938.097961 750.031677,938.005127 756.717590,940.777466 
	C761.054199,942.575684 766.246033,942.280823 771.033508,943.054871 
	C771.772156,943.174316 772.396729,943.999146 773.882629,944.963013 
M119.177963,908.649780 
	C120.772789,909.430115 122.545975,909.976257 123.931465,911.031494 
	C129.813751,915.511536 135.503510,920.246582 141.428696,924.667114 
	C143.763153,926.408813 146.410233,927.879456 149.125381,928.929382 
	C153.599182,930.659424 158.655136,931.231934 162.728958,933.573853 
	C170.522217,938.054138 178.906250,939.817566 187.568008,940.993164 
	C188.542343,941.125427 189.563950,941.031982 190.503830,941.274780 
	C195.145523,942.473633 199.758438,944.777283 204.397263,944.816162 
	C221.415024,944.958984 238.578629,946.515869 255.251129,941.091614 
	C259.191437,939.809631 263.528290,939.796631 267.623322,938.921692 
	C270.106720,938.391052 272.614380,937.598694 274.870911,936.451355 
	C282.138428,932.756592 289.456757,929.114441 296.449707,924.939819 
	C304.125336,920.357544 311.753723,915.589111 318.844910,910.171753 
	C323.755005,906.420654 327.517822,901.207336 332.152405,897.047424 
	C340.246277,889.782471 346.949371,881.380676 352.810394,872.327698 
	C356.418945,866.753906 359.541626,860.831360 362.473999,854.864685 
	C364.951691,849.823059 367.111237,844.583801 368.913147,839.263306 
	C370.601624,834.277832 371.838440,829.112976 372.909790,823.951416 
	C374.446442,816.548157 375.753418,809.092651 376.965790,801.628174 
	C377.849182,796.189392 375.502655,790.484741 378.783508,785.087585 
	C379.553680,783.820618 377.304504,780.976990 377.068359,778.791321 
	C376.334045,771.995300 378.216614,765.058228 375.142883,758.320129 
	C373.655121,755.058777 373.520752,751.128906 373.047516,747.466370 
	C372.072876,739.923218 369.866974,732.813416 367.218414,725.661682 
	C364.244354,717.630981 362.826416,709.041138 357.104736,702.180176 
	C355.527771,700.289246 353.846741,698.200256 353.142578,695.915710 
	C350.103180,686.054810 342.737091,678.925171 336.439758,671.627930 
	C325.711060,659.195618 313.696198,647.518311 298.844299,639.893311 
	C291.811127,636.282410 285.942108,631.056519 277.989563,628.354919 
	C270.096558,625.673584 262.478516,621.416870 254.261749,618.933960 
	C250.591324,617.824768 247.028793,616.352356 243.434662,614.998657 
	C239.980316,613.697571 236.634995,611.577454 233.087143,611.172668 
	C227.095367,610.489136 221.340424,611.061340 215.601639,607.313965 
	C210.404922,603.920471 203.594620,603.068115 197.613892,600.785889 
	C191.313583,598.381592 185.071823,595.786072 178.954712,592.950073 
	C172.863068,590.125793 166.955673,586.903625 160.971725,583.847656 
	C156.533493,581.581055 152.315155,578.248657 147.613007,577.296509 
	C141.861053,576.131775 138.037766,572.087341 133.134827,569.778320 
	C127.377228,567.066772 122.485222,562.491455 117.279419,558.641174 
	C111.850746,554.626038 106.309891,550.731812 101.153885,546.386353 
	C94.331451,540.636353 87.862663,534.468384 81.177818,528.552490 
	C79.677345,527.224609 77.911743,526.196289 76.268173,525.030090 
	C75.182899,526.891907 73.580368,528.631714 73.106842,530.637878 
	C71.521294,537.355469 70.108765,544.133179 69.069397,550.954773 
	C68.090614,557.378723 67.290001,563.874146 67.062828,570.361023 
	C65.716179,608.814880 67.928772,647.260071 65.470268,685.792542 
	C63.246437,720.646790 64.877869,755.755615 65.091591,790.750488 
	C65.141312,798.892029 66.335815,807.026489 67.001701,815.164368 
	C67.028824,815.495911 66.982925,815.842224 67.061272,816.159424 
	C68.365623,821.439575 69.733864,826.704529 70.982384,831.997742 
	C71.793510,835.436584 72.236328,838.973206 73.220718,842.356506 
	C73.897942,844.684021 75.114067,846.881531 76.281998,849.032593 
	C77.752007,851.740112 79.681755,854.222778 80.935791,857.016663 
	C82.639511,860.812561 83.315094,865.165955 85.458420,868.648315 
	C89.743347,875.610168 94.225990,882.575134 99.554535,888.736694 
	C105.478897,895.587219 112.436737,901.544067 119.177963,908.649780 
M948.999756,320.500000 
	C947.138733,283.754425 953.204102,246.719147 944.987244,210.208679 
	C943.758179,204.747147 942.650269,199.232147 940.970459,193.904526 
	C938.565247,186.275894 936.157043,178.583130 932.865601,171.318542 
	C929.977844,164.944931 925.897888,159.107803 922.293152,153.064377 
	C920.587646,150.205032 918.920593,147.300919 916.955383,144.623154 
	C913.634277,140.097961 910.851013,134.566345 906.401306,131.672546 
	C902.770813,129.311447 899.952515,126.479523 896.939453,123.653778 
	C894.629150,121.487114 892.591553,118.961563 890.051514,117.121841 
	C884.388550,113.020332 878.672363,108.927605 872.628662,105.435623 
	C867.051575,102.213226 861.117249,99.541557 855.154419,97.076866 
	C850.736694,95.250809 846.031555,94.110504 841.435120,92.729240 
	C837.151428,91.441948 832.851685,90.204758 828.536499,89.027992 
	C827.602356,88.773262 826.537231,89.013229 825.592163,88.781662 
	C820.624207,87.564308 815.643555,85.095383 810.726074,85.228714 
	C797.925537,85.575813 785.032288,83.097977 772.270325,86.840347 
	C766.746399,88.460205 760.709717,88.325378 754.909424,89.016991 
	C754.290588,89.090782 753.676941,89.315926 753.092285,89.549484 
	C750.250183,90.684776 747.455811,92.708221 744.576416,92.831795 
	C737.077148,93.153648 731.563232,98.111282 724.946289,100.436401 
	C716.552917,103.385750 709.581116,109.002785 702.328674,114.301361 
	C694.916260,119.716766 687.257141,124.647575 681.143005,131.554657 
	C677.323486,135.869492 673.702759,140.377029 670.224915,144.973694 
	C665.119324,151.721710 659.655640,158.295105 655.395996,165.559479 
	C651.256409,172.618881 647.965759,180.283646 645.183289,188.000214 
	C642.533447,195.348740 640.567383,203.023407 639.143005,210.710754 
	C637.842346,217.729965 637.302856,224.947098 637.085938,232.096985 
	C636.757690,242.916809 636.806091,253.759109 637.093384,264.581268 
	C637.212463,269.066101 637.996887,273.618469 639.128967,277.970978 
	C640.776184,284.304291 642.932312,290.511200 645.018433,296.722656 
	C647.058228,302.796173 648.821899,309.026978 651.561951,314.781555 
	C654.031128,319.967255 657.647705,324.608459 660.780151,329.475647 
	C662.128235,331.570251 663.622131,333.575531 664.891785,335.715179 
	C667.882202,340.754700 670.248840,346.269897 673.851196,350.812897 
	C677.955017,355.988190 683.026672,360.423004 687.867798,364.977600 
	C691.401245,368.301880 695.159790,371.403900 698.972412,374.409119 
	C702.041626,376.828308 705.316711,378.991089 708.546631,381.200134 
	C712.014771,383.572083 715.465271,385.982880 719.052734,388.164215 
	C724.049988,391.202728 728.963928,394.503540 734.283020,396.856812 
	C741.450623,400.027893 748.957886,402.437408 756.342285,405.110413 
	C761.908081,407.125061 767.465881,409.180206 773.108948,410.957855 
	C778.143616,412.543884 783.369873,413.537811 788.368591,415.218292 
	C795.501831,417.616333 802.529114,420.339233 809.550781,423.054840 
	C812.257507,424.101715 814.771790,425.642029 817.468811,426.719574 
	C821.332458,428.263214 825.293762,429.560913 829.194092,431.015259 
	C833.094849,432.469727 838.051880,432.968964 840.626099,435.697906 
	C845.429626,440.790009 852.346313,440.960846 857.551819,444.877136 
	C861.940308,448.178711 867.232483,450.259796 872.036743,453.033447 
	C876.454529,455.583923 880.773438,458.308075 885.102844,461.008728 
	C891.684814,465.114441 898.798401,468.619232 904.594849,473.639343 
	C908.098389,476.673676 911.466064,479.252869 915.656372,481.116486 
	C918.279114,482.282867 921.865967,483.808990 922.676086,486.029022 
	C924.746582,491.703369 928.276672,493.591309 933.825134,493.060333 
	C934.173889,493.026978 934.563477,493.419830 935.282410,493.797272 
	C934.321167,494.695709 933.608215,495.362122 932.872620,496.049652 
	C934.079468,497.189880 935.040710,498.098053 935.961914,498.968414 
	C942.558899,493.522491 942.986145,485.519867 944.910522,478.256439 
	C946.060974,473.914337 946.589294,469.359619 946.946045,464.864655 
	C947.775818,454.409088 948.842102,443.935028 948.908020,433.462769 
	C949.142761,396.143127 948.999756,358.821106 948.999756,320.500000 
z"/>
<path fill="#3787C6" opacity="1.000000" stroke="none" 
	d="
M773.478394,944.730408 
	C772.396729,943.999146 771.772156,943.174316 771.033508,943.054871 
	C766.246033,942.280823 761.054199,942.575684 756.717590,940.777466 
	C750.031677,938.005127 742.456238,938.097961 736.294312,933.380920 
	C733.042969,930.892029 728.161072,930.646606 724.243286,928.882263 
	C720.527466,927.208862 716.909729,925.153076 713.598206,922.778259 
	C704.570251,916.304199 694.531555,911.228455 686.972961,902.681946 
	C684.203491,899.550354 681.771667,896.093079 677.274963,894.110657 
	C673.735779,892.550354 671.716064,887.512390 669.062134,883.988525 
	C667.753784,882.251282 666.467957,880.489441 665.293335,878.660767 
	C662.495483,874.304871 659.613403,869.991516 657.057312,865.494995 
	C654.328247,860.694153 651.559692,855.853943 649.502319,850.751099 
	C647.537109,845.877136 646.551086,840.616150 644.966736,835.578003 
	C644.044250,832.644348 642.793274,829.813965 641.686707,826.938416 
	C641.467712,826.369141 641.106201,825.823181 641.025940,825.237000 
	C640.322876,820.103271 640.084717,814.866943 638.925903,809.841553 
	C634.611267,791.129822 637.781433,772.208008 637.238525,753.403259 
	C637.053711,747.002441 639.679199,740.530273 640.936707,734.074341 
	C641.706848,730.120300 642.178589,726.105103 643.030884,722.170776 
	C644.488281,715.443359 645.403015,708.641235 648.705566,702.317993 
	C651.427002,697.107300 652.533875,691.072327 655.064087,685.738281 
	C659.117004,677.193848 663.034363,668.648315 668.228882,660.552612 
	C672.617493,653.712891 677.818970,647.537048 682.092407,640.776917 
	C688.502319,630.637024 698.016113,623.718872 705.938416,615.206360 
	C710.573303,610.226196 716.939453,606.863647 722.495850,602.731812 
	C725.335632,600.619995 727.968140,598.198608 730.940369,596.302673 
	C736.047424,593.044922 741.249512,589.905640 746.595825,587.062866 
	C751.103760,584.665710 755.832153,582.663635 760.540405,580.669556 
	C763.808777,579.285461 767.220398,578.242981 770.546814,576.991516 
	C775.499695,575.128235 780.427612,573.199036 785.378662,571.331055 
	C787.474548,570.540283 789.553955,569.614136 791.725952,569.136414 
	C795.660339,568.271301 799.683411,567.813354 803.623840,566.971558 
	C808.943359,565.835083 814.216675,564.483643 819.517883,563.258972 
	C820.309692,563.076111 821.148010,563.104858 821.959717,562.997070 
	C842.864685,560.222961 863.887146,561.158264 884.874817,560.994202 
	C885.366089,560.990417 885.856812,560.921753 887.937805,560.759033 
	C886.501038,559.083679 885.644958,558.001099 884.702271,557.000183 
	C879.585144,551.567505 872.293823,552.767822 865.989136,551.044067 
	C859.658630,549.313354 853.165466,548.068970 846.673096,547.069641 
	C840.250671,546.081116 833.416260,546.692261 827.338623,544.775146 
	C816.171082,541.252502 804.983521,543.822998 793.846924,543.090759 
	C786.545349,542.610596 779.175293,542.744446 771.856201,543.065308 
	C762.872253,543.459106 753.871704,544.022644 744.949829,545.103271 
	C738.111450,545.931519 731.313232,547.396301 724.627686,549.092407 
	C718.284058,550.701782 712.153748,553.134094 705.848328,554.917114 
	C700.302612,556.485413 694.576111,557.425903 689.054932,559.066223 
	C683.386902,560.750183 677.871155,562.946777 672.288513,564.918213 
	C666.548584,566.945312 660.672424,568.658142 655.101624,571.074951 
	C647.573608,574.340759 639.783691,576.936584 632.271301,580.321777 
	C624.907715,583.639832 617.838257,587.768066 610.327087,590.474731 
	C605.235901,592.309387 600.542480,594.620667 595.716431,596.877869 
	C593.156555,598.074951 590.089478,598.131775 587.358521,599.029480 
	C579.606934,601.577576 571.947083,604.408386 564.174683,606.888000 
	C560.977722,607.907898 557.540710,608.152161 554.292725,609.040955 
	C550.289062,610.136597 546.369446,611.539185 542.410583,612.800049 
	C542.102905,612.898010 541.774902,612.943237 541.452637,612.981812 
	C535.814636,613.657349 530.177917,614.343811 524.537170,614.995483 
	C518.567505,615.685242 512.106262,615.148499 506.755066,617.336731 
	C501.067780,619.662354 495.677582,618.832764 490.204102,618.901123 
	C470.207642,619.151184 450.203613,619.183167 430.207794,618.908081 
	C422.394928,618.800598 414.564087,617.915161 406.799927,616.925171 
	C398.816040,615.907349 390.883362,614.437927 382.966095,612.963013 
	C376.658112,611.787903 370.397156,610.351440 364.133636,608.949219 
	C358.509766,607.690186 352.847443,606.538635 347.318573,604.937378 
	C341.637939,603.292236 336.134491,601.043701 330.482941,599.286194 
	C327.275848,598.288940 323.878357,597.911438 320.655731,596.954590 
	C317.283295,595.953247 314.041687,594.519653 310.697845,593.410889 
	C307.964905,592.504700 305.127625,591.909668 302.404297,590.978577 
	C297.913849,589.443237 293.472717,587.762390 289.020660,586.116272 
	C284.453888,584.427795 279.853699,582.817688 275.351440,580.970154 
	C270.725098,579.071594 266.178314,576.973511 261.636230,574.877197 
	C257.525970,572.980042 253.368088,571.150208 249.411011,568.965027 
	C242.542496,565.172241 235.032639,562.828918 228.690918,557.679749 
	C223.794281,553.703979 217.117172,551.976196 211.385956,548.956116 
	C206.605209,546.436951 201.962723,543.626038 197.413742,540.703491 
	C191.505432,536.907654 185.654999,533.005737 179.956039,528.904358 
	C174.188843,524.753906 168.580429,520.375610 163.007462,515.964478 
	C158.120331,512.096130 153.543350,507.818817 148.519531,504.145935 
	C144.630280,501.302399 143.404831,495.335449 137.547012,494.902740 
	C131.717148,485.377899 122.479813,478.972961 115.370750,470.640778 
	C111.180695,465.729919 107.395172,460.407806 103.959724,454.936554 
	C100.003006,448.635223 96.614052,441.975952 93.015068,435.451965 
	C90.746788,431.340179 88.340042,427.286530 86.371124,423.032898 
	C84.343086,418.651550 82.751366,414.066772 81.004143,409.557312 
	C78.605148,403.365631 76.241356,397.160339 73.856743,390.963074 
	C73.591064,390.272583 73.154350,389.621155 73.023125,388.909851 
	C71.651283,381.473114 70.957512,373.842377 68.840004,366.628143 
	C65.616760,355.646729 64.916298,344.562225 64.956596,333.254089 
	C65.077774,299.255188 64.968651,265.255524 65.024879,231.256317 
	C65.036995,223.934189 66.799507,216.913101 68.863281,209.895538 
	C70.669167,203.754883 70.747391,196.976822 73.264793,191.212234 
	C75.640137,185.772980 75.279160,179.316528 80.329475,174.643921 
	C82.983437,172.188446 83.267174,167.304413 85.037392,163.722717 
	C86.780350,160.196198 88.841660,156.781357 91.129280,153.578964 
	C96.319450,146.313354 101.509773,139.024124 107.165573,132.126175 
	C109.527641,129.245346 113.125412,127.398071 116.070961,124.971176 
	C123.132553,119.152977 129.844711,112.856285 137.265564,107.546021 
	C143.022263,103.426590 149.344086,98.576355 155.949585,97.573334 
	C163.159805,96.478477 168.400253,91.707787 175.503342,90.581512 
	C181.921585,89.563835 188.482330,88.211617 194.823776,86.689896 
	C209.188766,83.242828 223.515900,85.769585 237.821243,85.228577 
	C242.385818,85.055946 247.045792,87.594147 251.677795,88.833336 
	C252.458618,89.042229 253.321365,89.015144 254.142944,88.989738 
	C259.007904,88.839279 263.250031,90.420815 267.602203,92.623116 
	C271.822449,94.758659 276.827576,95.282730 281.252350,97.091034 
	C285.978088,99.022346 290.392029,101.704330 295.018005,103.898605 
	C296.649231,104.672371 298.504669,104.973541 300.713654,105.624939 
	C300.205994,110.794006 305.504120,110.749466 308.620026,112.973572 
	C309.314941,113.469559 310.366852,113.515747 310.976654,114.072990 
	C320.027802,122.344131 329.401642,130.310226 337.897552,139.121429 
	C342.401031,143.792038 345.361633,149.950699 349.007996,155.444778 
	C349.087708,155.564941 348.972900,155.819595 349.056305,155.931183 
	C353.553497,161.948975 358.062286,167.958099 361.511078,174.102386 
	C361.970123,175.916718 362.282227,177.784561 362.919281,179.534088 
	C364.184875,183.009827 365.624115,186.422546 367.002411,189.856979 
	C367.660583,191.496979 368.534149,193.076904 368.979523,194.770981 
	C370.403748,200.188095 370.904572,206.003860 373.224121,210.984756 
	C375.435089,215.732422 374.044006,220.458359 375.101929,224.980103 
	C379.404144,243.368256 376.324890,261.954956 376.738678,280.424225 
	C376.927094,288.833313 374.629578,297.371552 372.875610,305.728607 
	C371.334534,313.071259 369.226257,320.324066 366.887421,327.458862 
	C365.538177,331.574890 362.320709,335.211121 361.562439,339.359161 
	C360.211334,346.750122 355.980591,352.663422 352.872345,359.108521 
	C349.868622,365.336884 345.946075,371.147491 342.154449,376.963806 
	C337.904083,383.483887 334.114349,390.563385 328.721466,396.010925 
	C322.612732,402.181641 317.448792,409.486938 310.387665,414.415009 
	C307.516846,416.418549 305.160950,418.846313 302.403595,420.830231 
	C296.456268,425.109375 290.328735,429.162537 284.082947,432.995422 
	C277.852112,436.819122 271.282532,440.091125 265.053345,443.917358 
	C258.600189,447.881226 251.937836,451.108551 244.575928,453.128754 
	C239.656586,454.478668 235.088974,457.064667 230.267288,458.834076 
	C227.576614,459.821503 224.714691,460.416016 221.883057,460.928619 
	C217.434738,461.733948 212.909500,462.138489 208.485153,463.045837 
	C203.001282,464.170441 197.588882,465.642303 192.139725,466.939423 
	C191.663574,467.052795 191.143204,466.972717 190.644272,466.999359 
	C178.172348,467.664764 165.703110,468.393677 153.225296,468.918884 
	C151.734131,468.981628 150.224014,467.825684 148.671494,467.441406 
	C147.424683,467.132751 146.015701,466.785156 144.826660,467.070862 
	C141.596054,467.846924 138.444016,468.950073 134.033463,470.298981 
	C139.131577,472.030151 143.495087,473.545776 147.881210,474.992859 
	C153.646851,476.895111 159.429718,478.745178 165.207184,480.611511 
	C165.671478,480.761505 166.144409,480.929077 166.624664,480.978668 
	C173.261597,481.663727 180.079926,481.601807 186.493835,483.183075 
	C194.646530,485.193024 203.173660,483.370758 210.854843,485.382538 
	C221.160889,488.081696 231.237808,486.439972 241.376434,486.826691 
	C247.979797,487.078552 255.009705,486.731842 261.167023,484.643677 
	C265.837555,483.059753 270.234222,483.674408 274.692505,482.946045 
	C281.668518,481.806305 288.627350,480.494659 295.521149,478.936005 
	C303.480194,477.136414 311.432983,475.232391 319.249176,472.905762 
	C324.154175,471.445618 328.732727,468.922394 333.583679,467.239014 
	C340.111176,464.973877 346.819489,463.227570 353.337708,460.938263 
	C358.373932,459.169464 363.288940,457.023438 368.163635,454.835205 
	C373.707733,452.346405 379.133759,449.595886 384.635712,447.011536 
	C390.272583,444.363770 395.847198,441.551331 401.615875,439.224487 
	C408.992279,436.249115 416.625824,433.906189 423.976776,430.874207 
	C429.258423,428.695740 434.092346,425.387054 439.431274,423.404724 
	C444.809723,421.407684 450.593292,420.525970 456.145996,418.965546 
	C459.990051,417.885284 463.718140,416.398041 467.545624,415.251404 
	C470.458374,414.378845 473.410950,413.524506 476.407684,413.071930 
	C482.019623,412.224548 487.674469,411.656799 493.315186,411.005066 
	C499.284515,410.315430 505.747833,410.867706 511.105652,408.689270 
	C517.755798,405.985352 524.179443,407.242035 530.647949,407.114838 
	C547.807617,406.777344 564.982239,406.781952 582.143066,407.089630 
	C591.124023,407.250641 600.351257,407.270020 608.963135,409.395721 
	C614.267212,410.704926 619.368713,410.203766 624.460815,411.089386 
	C629.806519,412.019165 634.988708,413.861053 640.319885,414.910980 
	C645.233887,415.878754 650.306519,416.057617 655.205322,417.081543 
	C659.410767,417.960510 663.446411,419.623871 667.600159,420.786957 
	C670.686462,421.651154 673.886719,422.117584 676.956482,423.029633 
	C683.237610,424.895660 689.439392,427.029144 695.722717,428.887238 
	C700.788208,430.385162 706.008606,431.393860 711.005005,433.079742 
	C715.141785,434.475555 719.031982,436.590179 723.069946,438.295166 
	C725.398865,439.278503 727.742493,440.341583 730.185730,440.919495 
	C740.632629,443.390686 749.958618,448.634430 759.823059,452.416565 
	C766.625366,455.024628 773.034241,458.407898 779.663147,461.255066 
	C785.868530,463.920288 791.205811,468.558472 797.065430,472.096069 
	C800.192200,473.983795 803.700256,475.230988 806.884521,477.034973 
	C811.332825,479.555023 815.659668,482.292786 820.000854,484.997803 
	C824.212158,487.621857 828.421631,490.254028 832.542297,493.016357 
	C834.787231,494.521240 836.878784,496.263306 838.982666,497.968536 
	C846.328735,503.922394 853.811523,509.721283 860.939331,515.927124 
	C869.591309,523.460083 878.502258,530.825562 886.238281,539.240662 
	C892.687317,546.255859 897.546631,554.722107 903.217285,562.467102 
	C906.846130,567.423523 910.989258,572.031433 914.306274,577.179382 
	C917.000671,581.361145 918.858948,586.090271 920.997620,590.619324 
	C923.822571,596.601440 926.659241,602.581665 929.301636,608.645203 
	C931.352173,613.350464 933.309875,618.115234 934.958130,622.972534 
	C937.731628,631.146179 940.228394,639.413757 942.832947,647.644531 
	C942.930481,647.952881 942.944519,648.288757 942.986938,648.613220 
	C943.658997,653.751404 944.067627,658.940186 945.044983,664.019531 
	C949.415527,686.732849 945.798950,709.653259 946.994324,732.442688 
	C947.037903,733.273743 946.743225,734.217163 947.040649,734.925964 
	C951.206116,744.854797 950.036316,755.568115 948.519714,765.282715 
	C946.162537,780.381836 948.212097,795.335693 946.864441,810.260681 
	C946.455078,814.793762 944.358826,819.160889 943.183655,823.642883 
	C942.329346,826.901062 941.488647,830.192322 941.042908,833.522522 
	C939.621338,844.144531 934.928833,853.581360 930.213257,862.923035 
	C926.232849,870.808105 922.249817,878.965820 916.675842,885.681458 
	C912.583679,890.611816 908.086304,895.521545 903.185974,899.949219 
	C896.979553,905.557007 890.195068,910.350098 883.838318,915.603882 
	C879.088501,919.529541 873.251587,921.555420 868.945374,925.936279 
	C867.487305,927.419495 865.151062,928.087402 863.150085,928.979675 
	C857.782776,931.372925 852.382446,933.692139 846.989685,936.028015 
	C844.704712,937.017822 842.477112,938.236511 840.096497,938.885986 
	C836.692566,939.814636 833.161560,940.266663 829.703979,941.011230 
	C823.751099,942.293152 817.818665,943.670288 811.862915,944.938416 
	C810.904175,945.142517 809.869202,944.998962 808.869446,944.998108 
	C797.207153,944.988403 785.544922,944.975220 773.478394,944.730408 
z"/>
<path fill="#3787C6" opacity="1.000000" stroke="none" 
	d="
M119.061295,908.269897 
	C112.436737,901.544067 105.478897,895.587219 99.554535,888.736694 
	C94.225990,882.575134 89.743347,875.610168 85.458420,868.648315 
	C83.315094,865.165955 82.639511,860.812561 80.935791,857.016663 
	C79.681755,854.222778 77.752007,851.740112 76.281998,849.032593 
	C75.114067,846.881531 73.897942,844.684021 73.220718,842.356506 
	C72.236328,838.973206 71.793510,835.436584 70.982384,831.997742 
	C69.733864,826.704529 68.365623,821.439575 67.061272,816.159424 
	C66.982925,815.842224 67.028824,815.495911 67.001701,815.164368 
	C66.335815,807.026489 65.141312,798.892029 65.091591,790.750488 
	C64.877869,755.755615 63.246437,720.646790 65.470268,685.792542 
	C67.928772,647.260071 65.716179,608.814880 67.062828,570.361023 
	C67.290001,563.874146 68.090614,557.378723 69.069397,550.954773 
	C70.108765,544.133179 71.521294,537.355469 73.106842,530.637878 
	C73.580368,528.631714 75.182899,526.891907 76.268173,525.030090 
	C77.911743,526.196289 79.677345,527.224609 81.177818,528.552490 
	C87.862663,534.468384 94.331451,540.636353 101.153885,546.386353 
	C106.309891,550.731812 111.850746,554.626038 117.279419,558.641174 
	C122.485222,562.491455 127.377228,567.066772 133.134827,569.778320 
	C138.037766,572.087341 141.861053,576.131775 147.613007,577.296509 
	C152.315155,578.248657 156.533493,581.581055 160.971725,583.847656 
	C166.955673,586.903625 172.863068,590.125793 178.954712,592.950073 
	C185.071823,595.786072 191.313583,598.381592 197.613892,600.785889 
	C203.594620,603.068115 210.404922,603.920471 215.601639,607.313965 
	C221.340424,611.061340 227.095367,610.489136 233.087143,611.172668 
	C236.634995,611.577454 239.980316,613.697571 243.434662,614.998657 
	C247.028793,616.352356 250.591324,617.824768 254.261749,618.933960 
	C262.478516,621.416870 270.096558,625.673584 277.989563,628.354919 
	C285.942108,631.056519 291.811127,636.282410 298.844299,639.893311 
	C313.696198,647.518311 325.711060,659.195618 336.439758,671.627930 
	C342.737091,678.925171 350.103180,686.054810 353.142578,695.915710 
	C353.846741,698.200256 355.527771,700.289246 357.104736,702.180176 
	C362.826416,709.041138 364.244354,717.630981 367.218414,725.661682 
	C369.866974,732.813416 372.072876,739.923218 373.047516,747.466370 
	C373.520752,751.128906 373.655121,755.058777 375.142883,758.320129 
	C378.216614,765.058228 376.334045,771.995300 377.068359,778.791321 
	C377.304504,780.976990 379.553680,783.820618 378.783508,785.087585 
	C375.502655,790.484741 377.849182,796.189392 376.965790,801.628174 
	C375.753418,809.092651 374.446442,816.548157 372.909790,823.951416 
	C371.838440,829.112976 370.601624,834.277832 368.913147,839.263306 
	C367.111237,844.583801 364.951691,849.823059 362.473999,854.864685 
	C359.541626,860.831360 356.418945,866.753906 352.810394,872.327698 
	C346.949371,881.380676 340.246277,889.782471 332.152405,897.047424 
	C327.517822,901.207336 323.755005,906.420654 318.844910,910.171753 
	C311.753723,915.589111 304.125336,920.357544 296.449707,924.939819 
	C289.456757,929.114441 282.138428,932.756592 274.870911,936.451355 
	C272.614380,937.598694 270.106720,938.391052 267.623322,938.921692 
	C263.528290,939.796631 259.191437,939.809631 255.251129,941.091614 
	C238.578629,946.515869 221.415024,944.958984 204.397263,944.816162 
	C199.758438,944.777283 195.145523,942.473633 190.503830,941.274780 
	C189.563950,941.031982 188.542343,941.125427 187.568008,940.993164 
	C178.906250,939.817566 170.522217,938.054138 162.728958,933.573853 
	C158.655136,931.231934 153.599182,930.659424 149.125381,928.929382 
	C146.410233,927.879456 143.763153,926.408813 141.428696,924.667114 
	C135.503510,920.246582 129.813751,915.511536 123.931465,911.031494 
	C122.545975,909.976257 120.772789,909.430115 119.061295,908.269897 
z"/>
<path fill="#3787C6" opacity="1.000000" stroke="none" 
	d="
M948.999756,321.000000 
	C948.999756,358.821106 949.142761,396.143127 948.908020,433.462769 
	C948.842102,443.935028 947.775818,454.409088 946.946045,464.864655 
	C946.589294,469.359619 946.060974,473.914337 944.910522,478.256439 
	C942.986145,485.519867 942.558899,493.522491 935.961914,498.968414 
	C935.040710,498.098053 934.079468,497.189880 932.872620,496.049652 
	C933.608215,495.362122 934.321167,494.695709 935.282410,493.797272 
	C934.563477,493.419830 934.173889,493.026978 933.825134,493.060333 
	C928.276672,493.591309 924.746582,491.703369 922.676086,486.029022 
	C921.865967,483.808990 918.279114,482.282867 915.656372,481.116486 
	C911.466064,479.252869 908.098389,476.673676 904.594849,473.639343 
	C898.798401,468.619232 891.684814,465.114441 885.102844,461.008728 
	C880.773438,458.308075 876.454529,455.583923 872.036743,453.033447 
	C867.232483,450.259796 861.940308,448.178711 857.551819,444.877136 
	C852.346313,440.960846 845.429626,440.790009 840.626099,435.697906 
	C838.051880,432.968964 833.094849,432.469727 829.194092,431.015259 
	C825.293762,429.560913 821.332458,428.263214 817.468811,426.719574 
	C814.771790,425.642029 812.257507,424.101715 809.550781,423.054840 
	C802.529114,420.339233 795.501831,417.616333 788.368591,415.218292 
	C783.369873,413.537811 778.143616,412.543884 773.108948,410.957855 
	C767.465881,409.180206 761.908081,407.125061 756.342285,405.110413 
	C748.957886,402.437408 741.450623,400.027893 734.283020,396.856812 
	C728.963928,394.503540 724.049988,391.202728 719.052734,388.164215 
	C715.465271,385.982880 712.014771,383.572083 708.546631,381.200134 
	C705.316711,378.991089 702.041626,376.828308 698.972412,374.409119 
	C695.159790,371.403900 691.401245,368.301880 687.867798,364.977600 
	C683.026672,360.423004 677.955017,355.988190 673.851196,350.812897 
	C670.248840,346.269897 667.882202,340.754700 664.891785,335.715179 
	C663.622131,333.575531 662.128235,331.570251 660.780151,329.475647 
	C657.647705,324.608459 654.031128,319.967255 651.561951,314.781555 
	C648.821899,309.026978 647.058228,302.796173 645.018433,296.722656 
	C642.932312,290.511200 640.776184,284.304291 639.128967,277.970978 
	C637.996887,273.618469 637.212463,269.066101 637.093384,264.581268 
	C636.806091,253.759109 636.757690,242.916809 637.085938,232.096985 
	C637.302856,224.947098 637.842346,217.729965 639.143005,210.710754 
	C640.567383,203.023407 642.533447,195.348740 645.183289,188.000214 
	C647.965759,180.283646 651.256409,172.618881 655.395996,165.559479 
	C659.655640,158.295105 665.119324,151.721710 670.224915,144.973694 
	C673.702759,140.377029 677.323486,135.869492 681.143005,131.554657 
	C687.257141,124.647575 694.916260,119.716766 702.328674,114.301361 
	C709.581116,109.002785 716.552917,103.385750 724.946289,100.436401 
	C731.563232,98.111282 737.077148,93.153648 744.576416,92.831795 
	C747.455811,92.708221 750.250183,90.684776 753.092285,89.549484 
	C753.676941,89.315926 754.290588,89.090782 754.909424,89.016991 
	C760.709717,88.325378 766.746399,88.460205 772.270325,86.840347 
	C785.032288,83.097977 797.925537,85.575813 810.726074,85.228714 
	C815.643555,85.095383 820.624207,87.564308 825.592163,88.781662 
	C826.537231,89.013229 827.602356,88.773262 828.536499,89.027992 
	C832.851685,90.204758 837.151428,91.441948 841.435120,92.729240 
	C846.031555,94.110504 850.736694,95.250809 855.154419,97.076866 
	C861.117249,99.541557 867.051575,102.213226 872.628662,105.435623 
	C878.672363,108.927605 884.388550,113.020332 890.051514,117.121841 
	C892.591553,118.961563 894.629150,121.487114 896.939453,123.653778 
	C899.952515,126.479523 902.770813,129.311447 906.401306,131.672546 
	C910.851013,134.566345 913.634277,140.097961 916.955383,144.623154 
	C918.920593,147.300919 920.587646,150.205032 922.293152,153.064377 
	C925.897888,159.107803 929.977844,164.944931 932.865601,171.318542 
	C936.157043,178.583130 938.565247,186.275894 940.970459,193.904526 
	C942.650269,199.232147 943.758179,204.747147 944.987244,210.208679 
	C953.204102,246.719147 947.138733,283.754425 948.999756,321.000000 
z"/>
</svg>